<svg xmlns="http://www.w3.org/2000/svg" width="20.276" height="18.015" viewBox="0 0 20.276 18.015">
  <path id="bubbles" d="M19.15,15.861A2.055,2.055,0,0,0,20.276,17.7v.28a4.257,4.257,0,0,1-.572.039,4.179,4.179,0,0,1-3.04-1.307,5.664,5.664,0,0,1-1.457.189,4.812,4.812,0,0,1-5.069-4.506,4.812,4.812,0,0,1,5.069-4.506,4.812,4.812,0,0,1,5.069,4.506A4.159,4.159,0,0,1,19.337,15a2.047,2.047,0,0,0-.188.857ZM9.012,0c4.9,0,8.888,3.179,9.009,7.137a6.907,6.907,0,0,0-2.813-.59,6.708,6.708,0,0,0-4.473,1.658A5.56,5.56,0,0,0,8.8,12.391a5.394,5.394,0,0,0,.488,2.249c-.092,0-.184,0-.277,0a11.073,11.073,0,0,1-1.405-.089c-1.936,1.936-4.246,2.283-6.48,2.334v-.474a3.585,3.585,0,0,0,2.253-2.9,3.4,3.4,0,0,0-.038-.505A6.893,6.893,0,0,1,0,7.322C0,3.278,4.034,0,9.012,0Z"/>
</svg>
