<svg xmlns="http://www.w3.org/2000/svg" width="23.261" height="18.848" viewBox="0 0 23.261 18.848">
  <path id="users" d="M15.332,15.39s-6.253,0-8.6,5.471a25.856,25.856,0,0,0,8.6,1.563,25.856,25.856,0,0,0,8.6-1.563C21.584,15.39,15.332,15.39,15.332,15.39Zm0-.78c2.345,0,3.907-2.345,3.907-6.253s-3.907-3.908-3.907-3.908-3.907,0-3.907,3.908S12.987,14.61,15.332,14.61ZM7.746,11.943a2.584,2.584,0,0,0,1.957-.9,11.241,11.241,0,0,1-.3-2.691,3.6,3.6,0,0,1,1.289-2.992A3.365,3.365,0,0,0,7.747,3.576,3.152,3.152,0,0,0,4.529,6.794c0,3.218,1.287,5.149,3.218,5.149Zm3.034,2.522-.109-1.272a9.149,9.149,0,0,0-2.925-.607s-5.149,0-7.079,4.506a21.414,21.414,0,0,0,5.709,1.234,23.358,23.358,0,0,1,4.4-3.86Z" transform="translate(-0.667 -3.576)" />
</svg>
